<svg width="31" height="24" viewBox="0 0 31 24" fill="none" xmlns="http://www.w3.org/2000/svg">
<path d="M19.5 7.78236H24.6471M19.5 11.9118H24.6471M19.5 16.0412H24.6471M5.08824 22.2353H25.6765C27.3821 22.2353 28.7647 20.8487 28.7647 19.1382V4.6853C28.7647 2.97484 27.3821 1.58824 25.6765 1.58824H5.08824C3.38265 1.58824 2 2.97484 2 4.6853V19.1382C2 20.8487 3.38265 22.2353 5.08824 22.2353ZM13.3235 8.29854C13.3235 9.72392 12.1713 10.8794 10.75 10.8794C9.32868 10.8794 8.17647 9.72392 8.17647 8.29854C8.17647 6.87315 9.32868 5.71765 10.75 5.71765C12.1713 5.71765 13.3235 6.87315 13.3235 8.29854ZM15.0994 17.0203C13.8025 17.7132 12.3219 18.1059 10.7498 18.1059C9.17771 18.1059 7.6971 17.7132 6.40013 17.0203C7.05079 15.2439 8.7527 13.9765 10.7498 13.9765C12.7469 13.9765 14.4488 15.2439 15.0994 17.0203Z" stroke="white" stroke-opacity="0.5" stroke-width="2.5" stroke-linecap="round" stroke-linejoin="round"/>
</svg>
