<svg width="31" height="29" viewBox="0 0 31 29" fill="none" xmlns="http://www.w3.org/2000/svg">
<path d="M17.3533 27.2353V16.7205C17.3533 16.1398 17.8273 15.669 18.4121 15.669H22.6475C23.2323 15.669 23.7063 16.1398 23.7063 16.7205V27.2353M17.3533 27.2353H1.62724M17.3533 27.2353H23.7063M23.7063 27.2353H28.844M26.8828 27.2353V10.9006M3.58838 27.2353V10.901M3.58838 10.901C5.20811 11.8307 7.31517 11.6074 8.70091 10.2314C8.7639 10.1688 8.82449 10.1048 8.88269 10.0394C9.65876 10.9124 10.7942 11.4631 12.0591 11.4631C13.3241 11.4631 14.4595 10.9124 15.2356 10.0392C16.0117 10.9124 17.1471 11.4631 18.4121 11.4631C19.677 11.4631 20.8123 10.9125 21.5884 10.0395C21.6465 10.1048 21.707 10.1688 21.7699 10.2312C23.1558 11.6074 25.263 11.8306 26.8828 10.9006M3.58838 10.901C3.2748 10.721 2.97949 10.4978 2.71121 10.2314C1.0572 8.58884 1.0572 5.9258 2.71121 4.28329L4.39023 2.61594C4.78737 2.22156 5.32601 2 5.88765 2H24.5833C25.1449 2 25.6836 2.22156 26.0807 2.61594L27.7596 4.28317C29.4136 5.92568 29.4136 8.58872 27.7596 10.2312C27.4914 10.4975 27.1963 10.7207 26.8828 10.9006M7.82373 23.0294H13.1179C13.7027 23.0294 14.1768 22.5586 14.1768 21.9779V16.7205C14.1768 16.1398 13.7027 15.669 13.1179 15.669H7.82373C7.23895 15.669 6.7649 16.1398 6.7649 16.7205V21.9779C6.7649 22.5586 7.23895 23.0294 7.82373 23.0294Z" stroke="white" stroke-width="2.5" stroke-linecap="round" stroke-linejoin="round"/>
</svg>
